<?xml version="1.0" encoding="us-ascii" standalone="no"?><svg xmlns="http://www.w3.org/2000/svg" xmlns:xlink="http://www.w3.org/1999/xlink" contentStyleType="text/css" height="549px" preserveAspectRatio="none" style="width:899px;height:549px;background:#FFFFFF;" version="1.1" viewBox="0 0 899 549" width="899px" zoomAndPan="magnify"><defs/><g><!--cluster Frontend (React)--><g id="cluster_Frontend (React)"><rect fill="none" height="87.48" rx="2.5" ry="2.5" style="stroke:#181818;stroke-width:1.0;" width="567" x="109" y="144.99"/><text fill="#000000" font-family="sans-serif" font-size="14" font-weight="bold" lengthAdjust="spacing" textLength="118" x="333.5" y="160.5252">Frontend (React)</text></g><!--cluster Remix Server--><g id="cluster_Remix Server"><rect fill="none" height="87.49" rx="2.5" ry="2.5" style="stroke:#181818;stroke-width:1.0;" width="319" x="186" y="281.47"/><text fill="#000000" font-family="sans-serif" font-size="14" font-weight="bold" lengthAdjust="spacing" textLength="94" x="298.5" y="297.0052">Remix Server</text></g><!--cluster Database--><g id="cluster_Database"><path d="M6,427.96 C6,417.96 97,417.96 97,417.96 C97,417.96 188,417.96 188,427.96 L188,510.45 C188,520.45 97,520.45 97,520.45 C97,520.45 6,520.45 6,510.45 L6,427.96 " fill="none" style="stroke:#181818;stroke-width:1.0;"/><path d="M6,427.96 C6,437.96 97,437.96 97,437.96 C97,437.96 188,437.96 188,427.96 " fill="none" style="stroke:#181818;stroke-width:1.0;"/><text fill="#000000" font-family="sans-serif" font-size="14" font-weight="bold" lengthAdjust="spacing" textLength="66" x="64" y="453.4952">Database</text></g><!--cluster External Job API--><g id="cluster_External Job API"><path d="M281.0442,445.8357 C292.9923,425.7888 309.6387,423.4858 321.6297,445.7947 C333.3689,424.5498 345.6588,423.8023 361.5141,441.5886 C375.1631,415.7719 395.8691,416.631 408.8212,442.2299 C417.9403,423.4848 436.6254,423.989 446.6991,441.225 C463.1777,418.0888 477.5198,420.1246 492.3328,442.8812 C499.5873,420.417 520.8681,419.2837 535.0344,435.1892 C547.1914,418.3374 566.3376,416.6822 575.5071,438.3298 C586.6439,419.7905 601.8155,417.886 613.1287,438.1589 C630.8256,414.6688 646.8351,417.2059 660.8305,441.8287 C671.9675,423.2779 688.548,419.8978 702.555,438.6155 C715.0286,422.2279 728.5416,421.626 741.6149,437.8983 C755.094,420.5536 775.1065,421.8613 784.8014,442.2315 C798.0489,421.1254 810.9782,424.1387 823.8449,442.6073 C838.8367,418.5971 855.5668,422.0761 869.298,443.8586 C885.5531,451.4643 892.1016,468.6407 874.4499,480.9553 C887.9413,496.3326 887.5186,508.6683 866.96,516.9629 C854.6002,539.2638 833.6194,537.8403 822.727,515.5086 C813.0659,536.9581 793.5561,534.2601 783.4162,515.9824 C771.1339,536.8196 749.9247,538.7199 738.6556,514.9655 C727.4308,532.0351 713.3339,530.8506 701.8049,515.3092 C692.6616,533.4074 673.4216,536.6205 660.1563,520.2964 C648.0041,540.1701 630.059,538.8814 616.952,521.4008 C604.4257,541.662 586.0174,537.9198 576.94,517.9691 C566.5409,542.071 544.9329,536.5296 533.2994,519.2716 C516.9204,539.097 502.9017,538.7269 487.192,518.5012 C475.3787,537.5618 457.8816,538.3497 446.5942,517.9601 C437.0646,535.0304 420.4436,540.7687 408.0266,520.9815 C395.98,537.5751 378.8122,540.272 367.2789,520.408 C353.5567,540.2539 331.4386,536.7933 320.8795,516.7304 C305.307,534.0675 290.8962,535.4033 279.0515,512.8241 C269.4885,509.1056 269.6061,500.8661 276.431,494.7691 C268.6251,489.3155 268.1657,483.5253 276.9671,478.6231 C269.6366,473.3443 269.5387,464.0943 278.5078,460.1769 C271.7664,454.0035 273.2642,449.441 281.0442,445.8357 " fill="none" style="stroke:#181818;stroke-width:1.0;"/><text fill="#000000" font-family="sans-serif" font-size="14" font-weight="bold" lengthAdjust="spacing" textLength="116" x="512" y="459.4952">External Job API</text></g><!--entity SF--><g id="elem_SF"><rect fill="#F1F1F1" height="36.4883" rx="2.5" ry="2.5" style="stroke:#181818;stroke-width:0.5;" width="106" x="554" y="179.99"/><text fill="#000000" font-family="sans-serif" font-size="14" lengthAdjust="spacing" textLength="86" x="564" y="203.5252">Search Form</text></g><!--entity JCL--><g id="elem_JCL"><rect fill="#F1F1F1" height="36.4883" rx="2.5" ry="2.5" style="stroke:#181818;stroke-width:0.5;" width="106" x="413" y="179.99"/><text fill="#000000" font-family="sans-serif" font-size="14" lengthAdjust="spacing" textLength="86" x="423" y="203.5252">Job Card List</text></g><!--entity PAG--><g id="elem_PAG"><rect fill="#F1F1F1" height="36.4883" rx="2.5" ry="2.5" style="stroke:#181818;stroke-width:0.5;" width="93" x="284.5" y="179.99"/><text fill="#000000" font-family="sans-serif" font-size="14" lengthAdjust="spacing" textLength="73" x="294.5" y="203.5252">Pagination</text></g><!--entity FB--><g id="elem_FB"><rect fill="#F1F1F1" height="36.4883" rx="2.5" ry="2.5" style="stroke:#181818;stroke-width:0.5;" width="124" x="125" y="179.99"/><text fill="#000000" font-family="sans-serif" font-size="14" lengthAdjust="spacing" textLength="104" x="135" y="203.5252">Favorite Button</text></g><!--entity RL--><g id="elem_RL"><rect fill="#F1F1F1" height="36.4883" rx="2.5" ry="2.5" style="stroke:#181818;stroke-width:0.5;" width="120" x="369" y="316.47"/><text fill="#000000" font-family="sans-serif" font-size="14" lengthAdjust="spacing" textLength="100" x="379" y="340.0052">/search loader</text></g><!--entity FA--><g id="elem_FA"><rect fill="#F1F1F1" height="36.4883" rx="2.5" ry="2.5" style="stroke:#181818;stroke-width:0.5;" width="132" x="202" y="316.47"/><text fill="#000000" font-family="sans-serif" font-size="14" lengthAdjust="spacing" textLength="112" x="212" y="340.0052">/favorite actions</text></g><!--entity FJT--><g id="elem_FJT"><rect fill="#F1F1F1" height="36.4883" rx="2.5" ry="2.5" style="stroke:#181818;stroke-width:0.5;" width="150" x="22" y="467.96"/><text fill="#000000" font-family="sans-serif" font-size="14" lengthAdjust="spacing" textLength="130" x="32" y="491.4952">Favorite Jobs Table</text></g><!--entity JE--><g id="elem_JE"><rect fill="#F1F1F1" height="36.4883" rx="2.5" ry="2.5" style="stroke:#181818;stroke-width:0.5;" width="187" x="285.5" y="467.96"/><text fill="#000000" font-family="sans-serif" font-size="14" lengthAdjust="spacing" textLength="167" x="295.5" y="491.4952">Paginated Jobs Endpoint</text></g><!--entity JR--><g id="elem_JR"><rect fill="#F1F1F1" height="36.4883" rx="2.5" ry="2.5" style="stroke:#181818;stroke-width:0.5;" width="173" x="507.5" y="467.96"/><text fill="#000000" font-family="sans-serif" font-size="14" lengthAdjust="spacing" textLength="153" x="517.5" y="491.4952">Job Recommendations</text></g><!--entity SJ--><g id="elem_SJ"><rect fill="#F1F1F1" height="36.4883" rx="2.5" ry="2.5" style="stroke:#181818;stroke-width:0.5;" width="138" x="716" y="467.96"/><text fill="#000000" font-family="sans-serif" font-size="14" lengthAdjust="spacing" textLength="118" x="726" y="491.4952">Single Job Details</text></g><!--entity User--><g id="elem_User"><ellipse cx="404" cy="14" fill="#F1F1F1" rx="8" ry="8" style="stroke:#181818;stroke-width:0.5;"/><path d="M404,22 L404,49 M391,30 L417,30 M404,49 L391,64 M404,49 L417,64 " fill="none" style="stroke:#181818;stroke-width:0.5;"/><text fill="#000000" font-family="sans-serif" font-size="14" lengthAdjust="spacing" textLength="31" x="388.5" y="79.0352">User</text></g><!--link User to SF--><g id="link_User_SF"><path d="M419.98,50 C446.82,59.37 501.76,80.94 540,111.99 C563.97,131.44 581.5123,155.8795 593.3423,174.5795 " fill="none" id="User-to-SF" style="stroke:#181818;stroke-width:1.0;"/><polygon fill="#181818" points="596.55,179.65,595.1188,169.9057,593.8769,175.4245,588.358,174.1827,596.55,179.65" style="stroke:#181818;stroke-width:1.0;"/><text fill="#000000" font-family="sans-serif" font-size="13" lengthAdjust="spacing" textLength="84" x="558.27" y="125.5584">Enters search</text></g><!--link User to PAG--><g id="link_User_PAG"><path d="M388.07,52.57 C368.76,63.07 337.18,83.7 324,111.99 C313.91,133.66 317.555,156.0433 322.925,173.9333 " fill="none" id="User-to-PAG" style="stroke:#181818;stroke-width:1.0;"/><polygon fill="#181818" points="324.65,179.68,325.8937,169.91,323.2125,174.8911,318.2314,172.2099,324.65,179.68" style="stroke:#181818;stroke-width:1.0;"/><text fill="#000000" font-family="sans-serif" font-size="13" lengthAdjust="spacing" textLength="105" x="325" y="125.5584">Clicks next page</text></g><!--link User to FB--><g id="link_User_FB"><path d="M388.16,46.97 C340.98,53.98 203.01,77.16 177,111.99 C162.38,131.57 168.276,155.5042 176.076,174.1642 " fill="none" id="User-to-FB" style="stroke:#181818;stroke-width:1.0;"/><polygon fill="#181818" points="178.39,179.7,178.6095,169.8536,176.4617,175.0868,171.2284,172.9389,178.39,179.7" style="stroke:#181818;stroke-width:1.0;"/><text fill="#000000" font-family="sans-serif" font-size="13" lengthAdjust="spacing" textLength="132" x="178" y="125.5584">Marks job as favorite</text></g><!--link SF to RL--><g id="link_SF_RL"><path d="M625.04,216.81 C637.11,230.76 648.96,250.36 638,265.47 C604.27,311.97 543.9313,326.8041 495.0113,331.6041 " fill="none" id="SF-to-RL" style="stroke:#181818;stroke-width:1.0;"/><polygon fill="#181818" points="489.04,332.19,498.3876,335.292,494.0161,331.7017,497.6064,327.3303,489.04,332.19" style="stroke:#181818;stroke-width:1.0;"/><text fill="#000000" font-family="sans-serif" font-size="13" lengthAdjust="spacing" textLength="126" x="643.34" y="262.0384">Submits query (GET)</text></g><!--link RL to FJT--><g id="link_RL_FJT"><path d="M401.98,353.39 C387.46,362 368.91,371.62 351,376.96 C314.64,387.82 302.08,373.22 266,384.96 C208.74,403.59 154.8917,440.5558 123.9917,463.9758 " fill="none" id="RL-to-FJT" style="stroke:#181818;stroke-width:1.0;"/><polygon fill="#181818" points="119.21,467.6,128.7988,465.3515,123.1948,464.5798,123.9665,458.9758,119.21,467.6" style="stroke:#181818;stroke-width:1.0;"/><text fill="#000000" font-family="sans-serif" font-size="13" lengthAdjust="spacing" textLength="131" x="267" y="398.5284">Fetches favorite jobs</text></g><!--link FA to FJT--><g id="link_FA_FJT"><path d="M201.61,340.67 C140.58,346.77 56.54,359.61 36,384.96 C14.33,411.72 43.2142,443.0209 68.5042,463.8009 " fill="none" id="FA-to-FJT" style="stroke:#181818;stroke-width:1.0;"/><polygon fill="#181818" points="73.14,467.61,68.7257,458.8058,69.2768,464.4357,63.6469,464.9869,73.14,467.61" style="stroke:#181818;stroke-width:1.0;"/><text fill="#000000" font-family="sans-serif" font-size="13" lengthAdjust="spacing" textLength="175" x="37" y="398.5284">Creates/deletes favorite job</text></g><!--link RL to JE--><g id="link_RL_JE"><path d="M423.07,353.45 C413.45,382.22 396.4439,433.0501 386.8239,461.8001 " fill="none" id="RL-to-JE" style="stroke:#181818;stroke-width:1.0;"/><polygon fill="#181818" points="384.92,467.49,391.5691,460.2244,386.5066,462.7484,383.9826,457.6859,384.92,467.49" style="stroke:#181818;stroke-width:1.0;"/><text fill="#000000" font-family="sans-serif" font-size="13" lengthAdjust="spacing" textLength="123" x="412.4" y="398.5284">Fetches job listings</text></g><!--link RL to JR--><g id="link_RL_JR"><path d="M489.25,352.38 C508.46,359.93 528.68,370.5 544,384.96 C568.47,408.05 580.9615,439.9674 587.6215,461.9674 " fill="none" id="RL-to-JR" style="stroke:#181818;stroke-width:1.0;"/><polygon fill="#181818" points="589.36,467.71,590.5807,457.9371,587.9113,462.9245,582.9239,460.255,589.36,467.71" style="stroke:#181818;stroke-width:1.0;"/><text fill="#000000" font-family="sans-serif" font-size="13" lengthAdjust="spacing" textLength="103" x="558.91" y="398.5284">Searches by title</text></g><!--link RL to SJ--><g id="link_RL_SJ"><path d="M489.49,339.34 C540.22,344.36 613.4,356.35 671,384.96 C712.31,405.48 746.4576,440.2758 766.4376,463.0958 " fill="none" id="RL-to-SJ" style="stroke:#181818;stroke-width:1.0;"/><polygon fill="#181818" points="770.39,467.61,767.4708,458.2037,767.0963,463.8481,761.4519,463.4736,770.39,467.61" style="stroke:#181818;stroke-width:1.0;"/><text fill="#000000" font-family="sans-serif" font-size="13" lengthAdjust="spacing" textLength="118" x="696.85" y="398.5284">Fetches job details</text></g><!--link RL to JCL--><g id="link_RL_JCL"><path d="M464.04,316.07 C482.89,304.5 504.39,287.44 515,265.47 C523.65,247.57 513.1222,233.3567 497.4322,220.6467 " fill="none" id="RL-to-JCL" style="stroke:#181818;stroke-width:1.0;"/><polygon fill="#181818" points="492.77,216.87,497.2455,225.6432,496.6552,220.0173,502.2812,219.4269,492.77,216.87" style="stroke:#181818;stroke-width:1.0;"/><text fill="#000000" font-family="sans-serif" font-size="13" lengthAdjust="spacing" textLength="111" x="518.5" y="262.0384">Paginated all data</text></g><!--link RL to JCL--><g id="link_RL_JCL"><path d="M423.21,316.11 C418.38,298.42 413.53,270.67 422,248.47 C426.66,236.26 431.5967,229.3411 440.4067,220.7811 " fill="none" id="RL-to-JCL-1" style="stroke:#181818;stroke-width:1.0;"/><polygon fill="#181818" points="444.71,216.6,435.4677,220.0029,441.124,220.0843,441.0425,225.7406,444.71,216.6" style="stroke:#181818;stroke-width:1.0;"/><text fill="#000000" font-family="sans-serif" font-size="13" lengthAdjust="spacing" textLength="83" x="423" y="262.0384">Seach results</text></g><!--link JCL to User--><g id="link_JCL_User"><path d="M461.38,179.61 C456.58,162.15 448.46,134.78 439,111.99 C433.5,98.73 429.1872,89.8614 422.7772,77.9714 " fill="none" id="JCL-to-User" style="stroke:#181818;stroke-width:1.0;"/><polygon fill="#181818" points="419.93,72.69,420.6799,82.5103,422.3027,77.0912,427.7218,78.7139,419.93,72.69" style="stroke:#181818;stroke-width:1.0;"/><text fill="#000000" font-family="sans-serif" font-size="13" lengthAdjust="spacing" textLength="85" x="446.17" y="125.5584">Displays jobs</text></g><!--link PAG to RL--><g id="link_PAG_RL"><path d="M326.75,216.81 C324.33,231.14 323.44,251.24 333,265.47 C337.88,272.74 343.48,268.99 351,273.47 C372.01,286.01 389.3055,299.4693 404.5255,312.3193 " fill="none" id="PAG-to-RL" style="stroke:#181818;stroke-width:1.0;"/><polygon fill="#181818" points="409.11,316.19,404.8136,307.3277,405.2895,312.9645,399.6527,313.4404,409.11,316.19" style="stroke:#181818;stroke-width:1.0;"/><text fill="#000000" font-family="sans-serif" font-size="13" lengthAdjust="spacing" textLength="75" x="334" y="262.0384">GET request</text></g><!--link FB to FA--><g id="link_FB_FA"><path d="M181.88,216.72 C178.8,230.62 176.73,250.19 184,265.47 C194.42,287.36 210.5896,301.3279 229.0996,312.9579 " fill="none" id="FB-to-FA" style="stroke:#181818;stroke-width:1.0;"/><polygon fill="#181818" points="234.18,316.15,228.6874,307.9749,229.9463,313.4899,224.4313,314.7488,234.18,316.15" style="stroke:#181818;stroke-width:1.0;"/><text fill="#000000" font-family="sans-serif" font-size="13" lengthAdjust="spacing" textLength="83" x="185" y="262.0384">POST request</text></g><!--SRC=[RPF1Rfj048Rl-nGZJiaXyZs7IZQ6gCXHBN0VO0nJPvjbb-oE8rjLtxspO8DBp0ant_xpppzBUDUsGuyjrAxjd2NB5PyDWQUQqHuCAOKrEmy_0tarGf3atbacsy13IK8y9l17WJmtI4NewpV8dMyJm01LFYSAjuSKVGCR7RXdYdGpXxPuq1PPEziJs-NBdCZnqtdD1AiZymNBL-glkZLSKgjFK97_97_7x28CRet39W8YKNwnilXrxIGZYw4mj5h6LWqoxZ4G9ElBsvqkerEPFC0EzuO6YMBNspNks42IdPYyHHCfM6w_tn6wX4BDe9JPfdFQNZBCxkLSadnePMCuEI_ABplJSUbzupKnQZE0LH7jnJi0Jq_VP9FmB3t5PO0Xjwac-v5YQdJz7i3IYQ730qtrV2NbL_HI_IrTHFmQgXBPI9GR8QhZljKSuED8_WmFBzdkKKcXLoXs0kJ4zHjDfwDQKFdo1aazIKHXqP0Xdg5NiIAxqOg6Z5n52I6CG1dTz4CAiJy3QvRVubAjYjdnPaXjF9t6OQPjeJ4GRyh_TP6Ng-Sf70q75R_5MX_PCwnrw0oUmp1WZ7SCILAHKn9HO2MvzfClOxyVrLZu1m00]--></g></svg>